<svg xmlns="http://www.w3.org/2000/svg" style="background:transparent;background-color:transparent" width="341" height="1321" viewBox="-0.5 -0.5 341 1321" xmlns:v="https://vecta.io/nano"><style><![CDATA[.B{pointer-events:all}.C{fill:none}.D{stroke:#000}.E{fill:light-dark(#000000, #ffffff)}.F{font-family:&quot;Helvetica&quot;}.G{text-anchor:middle}.H{font-size:7px}.I{font-size:12px}.J{stroke-miterlimit:10}.K{pointer-events:stroke}]]></style><use href="#B" class="B C D"/><text x="14.5" y="46.5" font-family="&quot;Helvetica&quot;" class="E G H">42</text><use href="#B" y="30" class="B C D"/><text x="14.5" y="76.5" font-family="&quot;Helvetica&quot;" class="E G H">41</text><use href="#B" y="60" class="B C D"/><text x="14.5" y="106.5" font-family="&quot;Helvetica&quot;" class="E G H">40</text><use href="#B" y="90" class="B C D"/><text x="14.5" y="136.5" font-family="&quot;Helvetica&quot;" class="E G H">39</text><use href="#B" y="120" class="B C D"/><text x="14.5" y="166.5" font-family="&quot;Helvetica&quot;" class="E G H">38</text><use href="#B" y="150" class="B C D"/><text x="14.5" y="196.5" font-family="&quot;Helvetica&quot;" class="E G H">37</text><use href="#B" y="180" class="B C D"/><text x="14.5" y="226.5" font-family="&quot;Helvetica&quot;" class="E G H">36</text><use href="#B" y="210" class="B C D"/><text x="14.5" y="256.5" font-family="&quot;Helvetica&quot;" class="E G H">35</text><use href="#B" y="240" class="B C D"/><text x="14.5" y="286.5" font-family="&quot;Helvetica&quot;" class="E G H">34</text><use href="#B" y="270" class="B C D"/><text x="14.5" y="316.5" font-family="&quot;Helvetica&quot;" class="E G H">33</text><use href="#B" y="300" class="B C D"/><text x="14.5" y="346.5" font-family="&quot;Helvetica&quot;" class="E G H">32</text><use href="#B" y="330" class="B C D"/><text x="14.5" y="376.5" font-family="&quot;Helvetica&quot;" class="E G H">31</text><use href="#B" y="360" class="B C D"/><text x="14.5" y="406.5" font-family="&quot;Helvetica&quot;" class="E G H">30</text><use href="#B" y="390" class="B C D"/><text x="14.5" y="436.5" font-family="&quot;Helvetica&quot;" class="E G H">29</text><use href="#B" y="420" class="B C D"/><text x="14.5" y="466.5" font-family="&quot;Helvetica&quot;" class="E G H">28</text><use href="#B" y="450" class="B C D"/><text x="14.5" y="496.5" font-family="&quot;Helvetica&quot;" class="E G H">27</text><use href="#B" y="480" class="B C D"/><text x="14.5" y="526.5" font-family="&quot;Helvetica&quot;" class="E G H">26</text><use href="#B" y="510" class="B C D"/><text x="14.5" y="556.5" font-family="&quot;Helvetica&quot;" class="E G H">25</text><use href="#B" y="540" class="B C D"/><text x="14.5" y="586.5" font-family="&quot;Helvetica&quot;" class="E G H">24</text><use href="#B" y="570" class="B C D"/><text x="14.5" y="616.5" font-family="&quot;Helvetica&quot;" class="E G H">23</text><use href="#B" y="600" class="B C D"/><text x="14.5" y="646.5" font-family="&quot;Helvetica&quot;" class="E G H">22</text><use href="#B" y="630" class="B C D"/><text x="14.5" y="676.5" font-family="&quot;Helvetica&quot;" class="E G H">21</text><use href="#B" y="660" class="B C D"/><text x="14.5" y="706.5" font-family="&quot;Helvetica&quot;" class="E G H">20</text><use href="#B" y="690" class="B C D"/><text x="14.5" y="736.5" font-family="&quot;Helvetica&quot;" class="E G H">19</text><use href="#B" y="720" class="B C D"/><text x="14.5" y="766.5" font-family="&quot;Helvetica&quot;" class="E G H">18</text><use href="#B" y="750" class="B C D"/><text x="14.5" y="796.5" font-family="&quot;Helvetica&quot;" class="E G H">17</text><use href="#B" y="780" class="B C D"/><text x="14.5" y="826.5" font-family="&quot;Helvetica&quot;" class="E G H">16</text><use href="#B" y="810" class="B C D"/><text x="14.5" y="856.5" font-family="&quot;Helvetica&quot;" class="E G H">15</text><use href="#B" y="840" class="B C D"/><text x="14.5" y="886.5" font-family="&quot;Helvetica&quot;" class="E G H">14</text><use href="#B" y="870" class="B C D"/><text x="14.5" y="916.5" font-family="&quot;Helvetica&quot;" class="E G H">13</text><use href="#B" y="900" class="B C D"/><text x="14.5" y="946.5" font-family="&quot;Helvetica&quot;" class="E G H">12</text><use href="#B" y="930" class="B C D"/><text x="14.5" y="976.5" font-family="&quot;Helvetica&quot;" class="E G H">11</text><use href="#B" y="960" class="B C D"/><text x="14.5" y="1006.5" font-family="&quot;Helvetica&quot;" class="E G H">10</text><use href="#B" y="990" class="B C D"/><text x="14.5" y="1036.5" font-family="&quot;Helvetica&quot;" class="E G H">9</text><use href="#B" y="1020" class="B C D"/><text x="14.5" y="1066.5" font-family="&quot;Helvetica&quot;" class="E G H">8</text><use href="#B" y="1050" class="B C D"/><text x="14.5" y="1096.5" font-family="&quot;Helvetica&quot;" class="E G H">7</text><use href="#B" y="1080" class="B C D"/><text x="14.5" y="1126.5" font-family="&quot;Helvetica&quot;" class="E G H">6</text><use href="#B" y="1110" class="B C D"/><text x="14.5" y="1156.5" font-family="&quot;Helvetica&quot;" class="E G H">5</text><use href="#B" y="1140" class="B C D"/><text x="14.5" y="1186.5" font-family="&quot;Helvetica&quot;" class="E G H">4</text><use href="#B" y="1170" class="B C D"/><text x="14.5" y="1216.5" font-family="&quot;Helvetica&quot;" class="E G H">3</text><use href="#B" y="1200" class="B C D"/><text x="14.5" y="1246.5" font-family="&quot;Helvetica&quot;" class="E G H">2</text><use href="#B" y="1230" class="B C D"/><text x="14.5" y="1276.5" font-family="&quot;Helvetica&quot;" class="E G H">1</text><use href="#C" class="B C D"/><text x="324.5" y="46.5" font-family="&quot;Helvetica&quot;" class="E G H">42</text><use href="#C" y="30" class="B C D"/><text x="324.5" y="76.5" font-family="&quot;Helvetica&quot;" class="E G H">41</text><use href="#C" y="60" class="B C D"/><text x="324.5" y="106.5" font-family="&quot;Helvetica&quot;" class="E G H">40</text><use href="#C" y="90" class="B C D"/><text x="324.5" y="136.5" font-family="&quot;Helvetica&quot;" class="E G H">39</text><use href="#C" y="120" class="B C D"/><text x="324.5" y="166.5" font-family="&quot;Helvetica&quot;" class="E G H">38</text><use href="#C" y="150" class="B C D"/><text x="324.5" y="196.5" font-family="&quot;Helvetica&quot;" class="E G H">37</text><use href="#C" y="180" class="B C D"/><text x="324.5" y="226.5" font-family="&quot;Helvetica&quot;" class="E G H">36</text><use href="#C" y="210" class="B C D"/><text x="324.5" y="256.5" font-family="&quot;Helvetica&quot;" class="E G H">35</text><use href="#C" y="240" class="B C D"/><text x="324.5" y="286.5" font-family="&quot;Helvetica&quot;" class="E G H">34</text><use href="#C" y="270" class="B C D"/><text x="324.5" y="316.5" font-family="&quot;Helvetica&quot;" class="E G H">33</text><use href="#C" y="300" class="B C D"/><text x="324.5" y="346.5" font-family="&quot;Helvetica&quot;" class="E G H">32</text><use href="#C" y="330" class="B C D"/><text x="324.5" y="376.5" font-family="&quot;Helvetica&quot;" class="E G H">31</text><use href="#C" y="360" class="B C D"/><text x="324.5" y="406.5" font-family="&quot;Helvetica&quot;" class="E G H">30</text><use href="#C" y="390" class="B C D"/><text x="324.5" y="436.5" font-family="&quot;Helvetica&quot;" class="E G H">29</text><use href="#C" y="420" class="B C D"/><text x="324.5" y="466.5" font-family="&quot;Helvetica&quot;" class="E G H">28</text><use href="#C" y="450" class="B C D"/><text x="324.5" y="496.5" font-family="&quot;Helvetica&quot;" class="E G H">27</text><use href="#C" y="480" class="B C D"/><text x="324.5" y="526.5" font-family="&quot;Helvetica&quot;" class="E G H">26</text><use href="#C" y="510" class="B C D"/><text x="324.5" y="556.5" font-family="&quot;Helvetica&quot;" class="E G H">25</text><use href="#C" y="540" class="B C D"/><text x="324.5" y="586.5" font-family="&quot;Helvetica&quot;" class="E G H">24</text><use href="#C" y="570" class="B C D"/><text x="324.5" y="616.5" font-family="&quot;Helvetica&quot;" class="E G H">23</text><use href="#C" y="600" class="B C D"/><text x="324.5" y="646.5" font-family="&quot;Helvetica&quot;" class="E G H">22</text><use href="#C" y="630" class="B C D"/><text x="324.5" y="676.5" font-family="&quot;Helvetica&quot;" class="E G H">21</text><use href="#C" y="660" class="B C D"/><text x="324.5" y="706.5" font-family="&quot;Helvetica&quot;" class="E G H">20</text><use href="#C" y="690" class="B C D"/><text x="324.5" y="736.5" font-family="&quot;Helvetica&quot;" class="E G H">19</text><use href="#C" y="720" class="B C D"/><text x="324.5" y="766.5" font-family="&quot;Helvetica&quot;" class="E G H">18</text><use href="#C" y="750" class="B C D"/><text x="324.5" y="796.5" font-family="&quot;Helvetica&quot;" class="E G H">17</text><use href="#C" y="780" class="B C D"/><text x="324.5" y="826.5" font-family="&quot;Helvetica&quot;" class="E G H">16</text><use href="#C" y="810" class="B C D"/><text x="324.5" y="856.5" font-family="&quot;Helvetica&quot;" class="E G H">15</text><use href="#C" y="840" class="B C D"/><text x="324.5" y="886.5" font-family="&quot;Helvetica&quot;" class="E G H">14</text><use href="#C" y="870" class="B C D"/><text x="324.5" y="916.5" font-family="&quot;Helvetica&quot;" class="E G H">13</text><use href="#C" y="900" class="B C D"/><text x="324.5" y="946.5" font-family="&quot;Helvetica&quot;" class="E G H">12</text><use href="#C" y="930" class="B C D"/><text x="324.5" y="976.5" font-family="&quot;Helvetica&quot;" class="E G H">11</text><use href="#C" y="960" class="B C D"/><text x="324.5" y="1006.5" font-family="&quot;Helvetica&quot;" class="E G H">10</text><use href="#C" y="990" class="B C D"/><text x="324.5" y="1036.5" font-family="&quot;Helvetica&quot;" class="E G H">9</text><use href="#C" y="1020" class="B C D"/><text x="324.5" y="1066.5" font-family="&quot;Helvetica&quot;" class="E G H">8</text><use href="#C" y="1050" class="B C D"/><text x="324.5" y="1096.5" font-family="&quot;Helvetica&quot;" class="E G H">7</text><use href="#C" y="1080" class="B C D"/><text x="324.5" y="1126.5" font-family="&quot;Helvetica&quot;" class="E G H">6</text><use href="#C" y="1110" class="B C D"/><text x="324.5" y="1156.5" font-family="&quot;Helvetica&quot;" class="E G H">5</text><use href="#C" y="1140" class="B C D"/><text x="324.5" y="1186.5" font-family="&quot;Helvetica&quot;" class="E G H">4</text><use href="#C" y="1170" class="B C D"/><text x="324.5" y="1216.5" font-family="&quot;Helvetica&quot;" class="E G H">3</text><use href="#C" y="1200" class="B C D"/><text x="324.5" y="1246.5" font-family="&quot;Helvetica&quot;" class="E G H">2</text><use href="#C" y="1230" class="B C D"/><text x="324.5" y="1276.5" font-family="&quot;Helvetica&quot;" class="E G H">1</text><path d="M0 1290h340v30H0z" class="B C D"/><text x="169.5" y="1308.5" font-family="&quot;Helvetica&quot;" class="E G I">42U</text><path d="M0 0h340v30H0z" class="B C D"/><text x="169.5" y="18.5" font-family="&quot;Helvetica&quot;" class="E G I">42U</text><g class="C D B"><path d="M20 90h300v30H20z"/><path d="M27 95h20v20H27zm273 0h10v10h-10z"/><path d="M300 105h10v10h-10zm-14 0h10v10h-10zm-14-10h10v10h-10z"/><path d="M272 105h10v10h-10z"/><path d="M262 95h10v10h-10z"/><path d="M262 105h10v10h-10z"/><path d="M252 95h10v10h-10z"/><path d="M252 105h10v10h-10z"/><path d="M242 95h10v10h-10z"/><path d="M242 105h10v10h-10zm-62-7.5h50v15h-50z"/></g><text x="101.5" y="108.5" font-family="&quot;Helvetica&quot;" class="E G I">UDM Pro</text><g class="C D B"><path d="M20 150h300v30H20z"/><path d="M300 163h10v10h-10z"/><path d="M290 163h10v10h-10zm-45-2h10v10h-10z"/><path d="M255 161h10v10h-10z"/><path d="M265 161h10v10h-10z"/><path d="M275 161h10v10h-10zm-70 0h10v10h-10z"/><path d="M215 161h10v10h-10z"/><path d="M225 161h10v10h-10z"/><path d="M235 161h10v10h-10zm-70 0h10v10h-10z"/><path d="M175 161h10v10h-10z"/><path d="M185 161h10v10h-10z"/><path d="M195 161h10v10h-10zm-70 0h10v10h-10z"/><path d="M135 161h10v10h-10z"/><path d="M145 161h10v10h-10z"/><path d="M155 161h10v10h-10z"/></g><text x="61.5" y="169.5" font-family="&quot;Helvetica&quot;" class="E G I">Pro Max 16</text><g class="C D B"><use href="#D"/><use href="#D" x="30"/><use href="#D" x="-60"/><use href="#D" x="-30"/><use href="#D" x="-120"/><use href="#D" x="-90"/><path d="M80 185h20v20H80z"/><use href="#D" x="-150"/></g><text x="54.5" y="203.5" font-family="&quot;Helvetica&quot;" class="E G I">Strip</text><text x="54.5" y="193.5" font-family="&quot;Helvetica&quot;" class="E G I">Power</text><g class="C D B"><path d="M20 180h300v30H20z"/><path d="M20 210h200v30H20z"/><circle cx="207.5" cy="222.5" r="2.5"/><circle cx="212.5" cy="227.5" r="2.5"/><circle cx="207.5" cy="232.5" r="2.5"/><circle cx="202.5" cy="227.5" r="2.5"/><circle cx="192.5" cy="232.5" r="2.5"/><circle cx="182.5" cy="232.5" r="2.5"/><circle cx="172.5" cy="232.5" r="2.5"/><path d="M40 235h10v5H40zm15 0h10v5H55z"/></g><text x="106.5" y="228.5" font-family="&quot;Helvetica&quot;" class="E G I">Reolink NVR</text><path d="M190 890h60v190h-60z" class="B C D"/><text x="219.5" y="1076.5" font-family="&quot;Helvetica&quot;" class="E G I">CyberPower...</text><g class="C D B"><circle cx="202.5" cy="905" r="5"/><path d="M212.5 900h10v10h-10z"/><path d="M222.5 900h10v10h-10z"/><path d="M232.5 900h10v10h-10zm-33.75 20h42.5v60h-42.5zM30 880h150v200H30z"/></g><g class="C D B"><path d="M30 970h150v20H30z"/><rect x="36" y="975" width="20" height="10" rx="1.5"/><rect x="66" y="975" width="20" height="10" rx="1.5"/><circle cx="105" cy="980" r="5"/></g><text x="104.5" y="918.5" font-family="&quot;Helvetica&quot;" class="E G I">Home Server</text><g class="C D B"><path d="M20 480h120v30H20z"/><path d="M20 490h70v20H20z"/><circle cx="30" cy="500" r="5"/><rect x="40" y="495" width="20" height="10" rx="1.5"/><rect x="65" y="498" width="10" height="4" rx=".6"/></g><text x="116.5" y="498.5" font-family="&quot;Helvetica&quot;" class="E G I">5080</text><g class="C D"><path d="M20 60h300v30H20z" class="B"/><path d="M40 70h10v10H40z" class="B"/><path d="M50 70h10v10H50z" class="B"/><path d="M60 70h10v10H60z" class="B"/><path d="M70 70h10v10H70z" class="B"/><path d="M80 70h10v10H80z" class="B"/><path d="M90 70h10v10H90z" class="B"/><path d="M100 70h10v10h-10z" class="B"/><path d="M110 70h10v10h-10zm20 0h10v10h-10z" class="B"/><path d="M140 70h10v10h-10z" class="B"/><path d="M150 70h10v10h-10z" class="B"/><path d="M160 70h10v10h-10z" class="B"/><path d="M170 70h10v10h-10z" class="B"/><path d="M180 70h10v10h-10z" class="B"/><path d="M190 70h10v10h-10z" class="B"/><path d="M200 70h10v10h-10zm20 0h10v10h-10z" class="B"/><path d="M230 70h10v10h-10z" class="B"/><path d="M240 70h10v10h-10z" class="B"/><path d="M250 70h10v10h-10z" class="B"/><path d="M260 70h10v10h-10z" class="B"/><path d="M270 70h10v10h-10z" class="B"/><path d="M280 70h10v10h-10z" class="B"/><path d="M290 70h10v10h-10zm-70 60h10v10h-10zm13 0h10v5h-10z" class="B"/><path d="M233 135h10v5h-10zm12-5h10v5h-10z" class="B"/><path d="M245 135h10v5h-10z" class="B"/><path d="M220 140h35" class="J K"/></g><text x="237.5" y="147.5" font-family="&quot;Helvetica&quot;" font-size="8" class="E G">PiHole</text><path d="M20 1080h300m-300 4.5h300M20 510h300m-300 4.5h300M20 240h300m-300 4.5h300" class="C D J K"/><defs ><path id="B" d="M10 30h10v30H10z"/><path id="C" d="M320 30h10v30h-10z"/><path id="D" d="M260 185h20v20h-20z"/></defs></svg>